#!OML:ASF F:\VICON\USERDATA\INSTALL\rory3\rory3.ASF
:FULLY-SPECIFIED
:DEGREES
29
root -0.8011007825173355 18.065170634771672 9.856807959711256 5.539494222942103 -6.583272118451708 -0.9267058399468878
lfemur 13.913947363178636 -2.0473517192301904 -24.76308707632873
ltibia 30.122964269213487
lfoot 14.435204315809708 -14.592441870089267
ltoes -16.462012666081474
rfemur -44.893448385055635 2.6283741688031568 26.7664566292958
rtibia 56.53681249674907
rfoot 7.4792736522140935 0.15544845292688603
rtoes -3.1356870452094188
lowerback 12.426795776197501 -0.9117166153443079 -1.1957209060311396
upperback -2.219635585545914 -1.304694784948762 2.081980166870191
thorax -9.399313100902672 -0.48709730276279534 2.8709225184820997
lowerneck -20.435253925395347 -2.847089152658902 -2.4470381868859743
upperneck 15.846360914092724 -3.7119069310881567 2.593858619536916
head 8.272688157199614 -1.6161679144745646 0.8611119119985082
lclavicle -1.0433870363473872e-15 1.1826007159941594e-15
lhumerus -35.07227079592643 -17.00832943296566 95.31012278521409
lradius 123.85463096205098
lwrist 31.56513956449148
lhand -32.334841913525075 0.4144240362515646
lfingers nan
lthumb -5.49214968076087 30.352085761416156
rclavicle -9.765803860391656e-16 1.2261998431615876e-15
rhumerus -59.762109366911574 8.558207361343225 -99.48578693485406
rradius 122.5863335160495
rwrist -16.24663182759983
rhand -18.93301759321214 35.49177502424609
rfingers nan
rthumb 7.405969466176712 7.269659497727968
30
root -0.7365390475088697 18.201868548295625 11.88010248186183 5.4762604475598 -5.738804099081885 -0.5561041897709156
lfemur 12.993421875304858 -2.768493811811987 -24.91427888144294
ltibia 38.354919436096836
lfoot 16.270597791532182 -14.967651258249166
ltoes -13.443459713632652
rfemur -42.68387745333568 2.2971901247241395 26.91334967006872
rtibia 42.20128087419357
rfoot 6.656826908890396 0.7938187575129128
rtoes -4.427178866947562
lowerback 12.312317033515033 -1.1544690224194354 -1.0822046562795822
upperback -2.1189552312545064 -1.657931883476997 2.07349114401659
thorax -8.769891717241102 -0.6803574762464815 3.106413940940689
lowerneck -20.6176975690784 -2.671161980342414 -2.491930547426046
upperneck 15.978997389531928 -3.407014364809477 2.518174724001229
head 8.224401854685933 -1.5064049826008943 0.8947502354750614
lclavicle -1.0244893891305941e-15 1.1971173443255635e-15
lhumerus -35.76853011179665 -18.405351036714965 95.75098334977511
lradius 121.98452152697949
lwrist 31.87988108260748
lhand -32.273012012992645 0.14472986185757739
lfingers nan
lthumb -5.39795235082981 30.16844641291868
rclavicle -9.77502096358432e-16 1.2266316167295922e-15
rhumerus -60.10122412566529 7.567631643215412 -97.93762460260557
rradius 122.93070308881309
rwrist -14.225867233092684
rhand -18.845743494493373 36.16131462378162
rfingers nan
rthumb 7.3680861700673885 7.816626558844842
31
root -0.6904727986594826 18.262393983603296 14.081208055752102 5.025788744453627 -4.771971759428611 0.10736889374203096
lfemur 10.563609233251594 -3.245947894983603 -25.49498846355283
ltibia 49.9637271882144
lfoot 15.99288776360032 -14.39867195077261
ltoes -11.117859733823895
rfemur -39.45258234297801 1.644858565677767 27.104361631135813
rtibia 31.525436824867075
rfoot 5.406593160565809 -2.0269412154425233
rtoes -3.5093589356052104
lowerback 12.55772810343849 -1.3215752631346849 -1.1612515777839412
upperback -1.5786844528143391 -1.9408811141074116 2.031708665389764
thorax -7.922942234778229 -0.789695766309926 3.296838957886643
lowerneck -20.329222408696346 -2.6188197417337413 -2.6345438799891623
upperneck 15.52309786952435 -3.2607094276408093 2.584626450039551
head 7.942308471061857 -1.4726509442857225 0.9742587811308707
lclavicle -1.0133479916476068e-15 1.2060075461867845e-15
lhumerus -36.785853985888494 -19.36843571219222 96.26546448003039
lradius 118.80077076072165
lwrist 31.56492446752439
lhand -32.156454585937425 0.4373612760238256
lfingers nan
lthumb -5.2613140943408325 30.45886877091753
rclavicle -9.756120803423107e-16 1.2289285151988315e-15
rhumerus -59.832005488262666 6.583800974638413 -96.52055196907806
rradius 123.19424146342597
rwrist -13.170181721740663
rhand -18.94414242729503 35.19907783816825
rfingers nan
rthumb 7.396371345179807 7.510871856496137
32
root -0.638765596330666 18.23538488725142 16.036981334703345 4.532558840363304 -4.566185733516137 -0.08243164890886656
lfemur 6.712110463226608 -2.856200594346267 -24.48936938616786
ltibia 64.0474890805303
lfoot 14.272242960313383 -12.9763672650436
ltoes -10.444907999899065
rfemur -37.0581821684775 1.895835384698661 27.856740692502644
rtibia 27.6966939048245
rfoot 3.590163901563467 -5.271647972210471
rtoes 1.6637456661917995
lowerback 13.026656739428137 -1.1529701429690822 -0.6715599911678924
upperback -1.1746976514494414 -1.58162654524989 2.2055374781567263
thorax -7.85289805828547 -0.6259382617554154 3.1142806378126435
lowerneck -20.013460211157884 -2.5200966246999097 -2.6603687939219576
upperneck 15.368497987699797 -3.0760302348276083 2.445169454723714
head 7.896989077403696 -1.408140800780652 0.9548079529836773
lclavicle -1.0267553206259826e-15 1.1974200501764862e-15
lhumerus -37.445877395432255 -19.24345893444183 96.87953116324192
lradius 114.40027914144056
lwrist 32.14242006027921
lhand -32.000097997352256 1.3907510563738976
lfingers nan
lthumb -5.168604007909951 31.20697677829621
rclavicle -9.669833403497008e-16 1.235381391134622e-15
rhumerus -59.0244385929382 5.894820996587484 -95.58046127090583
rradius 122.98361024586289
rwrist -13.114839156364868
rhand -18.94088791904981 35.12428462241766
rfingers nan
rthumb 7.183000140002425 6.423194602150378
